<svg width="14" height="13" viewBox="0 0 14 13" fill="none" xmlns="http://www.w3.org/2000/svg">
<path d="M13.5511 5.18661C13.5379 5.14574 13.5134 5.1094 13.4805 5.08171C13.4477 5.05403 13.4077 5.03611 13.3652 5.02999L9.10961 4.4118L7.20648 0.555456C7.18512 0.519749 7.15487 0.490191 7.11868 0.469667C7.08249 0.449143 7.04159 0.438354 6.99998 0.438354C6.95838 0.438354 6.91748 0.449143 6.88129 0.469667C6.84509 0.490191 6.81484 0.519749 6.79348 0.555456L4.89036 4.4118L0.634358 5.02999C0.591594 5.03595 0.551372 5.05383 0.518288 5.08158C0.485204 5.10932 0.460593 5.14581 0.447268 5.18688C0.433943 5.22796 0.432441 5.27195 0.442934 5.31383C0.453428 5.35571 0.475493 5.3938 0.506608 5.42374L3.58748 8.42433L2.85948 12.6628C2.85207 12.7052 2.85669 12.7489 2.87282 12.7888C2.88896 12.8287 2.91596 12.8633 2.95077 12.8887C2.98557 12.914 3.02678 12.9291 3.06973 12.9322C3.11268 12.9354 3.15564 12.9264 3.19373 12.9063L6.99998 10.9045L10.8062 12.9063C10.8443 12.9263 10.8871 12.9352 10.93 12.9322C10.9728 12.9291 11.0139 12.9141 11.0487 12.8888C11.0835 12.8636 11.1105 12.8291 11.1267 12.7894C11.1429 12.7496 11.1477 12.7061 11.1405 12.6637L10.4138 8.42455L13.4931 5.42286C13.5238 5.39277 13.5455 5.35472 13.5557 5.31298C13.566 5.27125 13.5644 5.22748 13.5511 5.18661Z" fill="#F8C42F"/>
</svg>
